# AST/ASF file generated using VICON BodyLanguage
# -----------------------------------------------
:version 1.10
:name VICON
:units
  mass 1.0
  length 0.45
  angle deg
:documentation
   .ast/.asf automatically generated from VICON data using
   VICON BodyBuilder and BodyLanguage model FoxedUp or BRILLIANT.MOD
:root
   order TX TY TZ RX RY RZ
   axis XYZ
   position 0 0 0  
   orientation 0 0 0 
:bonedata
  begin
     id 1 
     name lhipjoint
     direction 0.573633 -0.743009 0.344793 
     length 2.46257 
     axis 0 0 0  XYZ
  end
  begin
     id 2 
     name lfemur
     direction 0.34202 -0.939693 0  
     length 7.3842  
     axis 0 0 20  XYZ
    dof rx ry rz
    limits (-160.0 20.0)
           (-70.0 70.0)
           (-60.0 70.0)
  end
  begin
     id 3 
     name ltibia
     direction 0.34202 -0.939693 0   
     length 7.50407   
     axis 0 0 20   XYZ
    dof rx
    limits (-10.0 170.0)
  end
  begin
     id 4 
     name lfoot
     direction 0.110749 -0.304281 0.946123   
     length 1.95925   
     axis -90 7.62852e-016 20   XYZ
    dof rx rz
    limits (-45.0 90.0)
           (-70.0 20.0)
  end
  begin
     id 5 
     name ltoes
     direction 1.53554e-011 -4.21843e-011 1   
     length 0.978318   
     axis -90 7.62852e-016 20   XYZ
    dof rx
    limits (-90.0 20.0)
  end
  begin
     id 6 
     name rhipjoint
     direction -0.488109 -0.791693 0.367385   
     length 2.31113  
     axis 0 0 0  XYZ 
  end
  begin
     id 7 
     name rfemur
     direction -0.34202 -0.939693 0   
     length 7.40965   
     axis 0 0 -20   XYZ
    dof rx ry rz
    limits (-160.0 20.0)
           (-70.0 70.0)
           (-70.0 60.0)
  end
  begin
     id 8 
     name rtibia
     direction -0.34202 -0.939693 0   
     length 7.55548   
     axis 0 0 -20   XYZ
    dof rx
    limits (-10.0 170.0)
 end
 begin
     id 9 
     name rfoot
     direction -0.127594 -0.350561 0.927808   
     length 2.07199  
     axis -90 -7.62852e-016 -20   XYZ
    dof rx rz
    limits (-45.0 90.0)
           (-20.0 70.0)
  end
  begin
     id 10 
     name rtoes
     direction -1.53542e-011 -4.21909e-011 1   
     length 1.02667   
     axis -90 -7.62852e-016 -20   XYZ
    dof rx
    limits (-90.0 20.0)
  end
  begin
     id 11 
     name lowerback
     direction -0.0103342 0.997298 -0.0727278   
     length 2.02836   
     axis 0 0 0   XYZ
    dof rx ry rz
    limits (-20.0 45.0)
           (-30.0 30.0)
           (-30.0 30.0)
  end
  begin
     id 12 
     name upperback
     direction 0.0171146 0.999786 -0.011606   
     length 2.03179   
     axis 0 0 0   XYZ
    dof rx ry rz
    limits (-20.0 45.0)
           (-30.0 30.0)
           (-30.0 30.0)
  end
  begin
     id 13 
     name thorax
     direction 0.0216927 0.999513 0.0224343   
     length 2.03882   
     axis 0 0 0   XYZ
    dof rx ry rz
    limits (-20.0 45.0)
           (-30.0 30.0)
           (-30.0 30.0)
  end
  begin
     id 14 
     name lowerneck
     direction 0.000989287 0.993907 0.110221   
     length 1.75428   
     axis 0 0 0   XYZ
    dof rx ry rz
    limits (-20.0 45.0)
           (-30.0 30.0)
           (-30.0 30.0)
  end
  begin
     id 15 
     name upperneck
     direction -0.0172474 0.994813 -0.100253   
     length 1.77058   
     axis 0 0 0   XYZ
    dof rx ry rz
    limits (-20.0 45.0)
           (-30.0 30.0)
           (-30.0 30.0)
  end
  begin
     id 16
     name head
     direction -0.00486455 0.99894 -0.0457663  
     length 1.77427  
     axis 0 0 0   XYZ
    dof rx ry rz
    limits (-20.0 45.0)
           (-30.0 30.0)
           (-30.0 30.0)
  end
  begin
     id 17 
     name lclavicle
     direction 0.927314 0.333734 -0.169441  
     length 3.97584  
     axis 0 0 0   XYZ
    dof ry rz
    limits (-20.0 10.0)
           (0.0 20.0)
  end
  begin
     id 18 
     name lhumerus
     direction 1 -4.48965e-011 -3.25313e-028   
     length 4.76468   
     axis 180 -30 -90   XYZ
    dof rx ry rz
    limits (-60.0 90.0)
           (-90.0 90.0)
           (-90.0 90.0)
  end
  begin
     id 19
     name lradius
     direction 1 -4.48969e-011 -2.8465e-028   
     length 3.52712   
     axis -180 -30 -90   XYZ
    dof rx
    limits (-10.0 170.0)
  end
  begin
     id 20
     name lwrist
     direction 1 -4.4896e-011 -7.78665e-028   
     length 1.76356   
     axis 1.91374e-015 90 90   XYZ
    dof ry
    limits (-180.0 0.0)
 end
  begin
     id 21 
     name lhand
     direction 1 -4.48959e-011 -1.55733e-027   
     length 0.859564   
     axis 9.9371e-016 90 90   XYZ
    dof rx rz
    limits (-90.0 90.0)
           (-45.0 45.0)
  end
  begin
     id 22 
     name lfingers
     direction 1 -4.48965e-011 -3.11466e-027   
     length 0.693002   
     axis 1.98742e-015 90 90   XYZ
    dof rx
    limits (0.0 90.0)
  end
  begin
     id 23
     name lthumb
     direction 0.707107 -6.34948e-011 0.707107   
     length 0.995017   
     axis -90 45 2.85299e-015   XYZ
    dof rx rz
    limits (-45.0 45.0)
           (-45.0 45.0)
  end
  begin
     id 24 
     name rclavicle
     direction -0.899388 0.348209 -0.264294   
     length 3.68366  
     axis 0 0 0   XYZ 
    dof ry rz
    limits (-10.0 20.0)
           (-20.0 0.0)
  end
  begin
     id 25 
     name rhumerus
     direction -1 -4.48965e-011 -3.01536e-027  
     length 4.90577   
     axis 180 30 90   XYZ
    dof rx ry rz
    limits (-90.0 60.0)
           (-90.0 90.0)
           (-90.0 90.0)
  end
  begin
     id 26 
     name rradius
     direction -1 -4.48966e-011 3.93291e-027   
     length 3.42692   
     axis -180 30 90   XYZ
    dof rx
    limits (-10.0 170.0)
  end
  begin
     id 27 
     name rwrist
     direction -1 -4.48969e-011 -7.78665e-028   
     length 1.71346   
     axis 1.91374e-015 -90 -90   XYZ
    dof ry
    limits (-180.0 0.0)
  end
  begin
     id 28
     name rhand
     direction -1 -4.48967e-011 -1.55733e-027   
     length 0.740957   
     axis 9.9371e-016 -90 -90   XYZ
    dof rx rz
    limits (-90.0 90.0)
           (-45.0 45.0)
  end
  begin
     id 29
     name rfingers
     direction -1 -4.48949e-011 -3.11466e-027   
     length 0.597378   
     axis 1.98742e-015 -90 -90   XYZ
    dof rx
    limits (0.0 90.0)
  end
  begin
     id 30
     name rthumb
     direction -0.707107 -6.34931e-011 0.707107   
     length 0.857719   
     axis -90 -45 -2.85299e-015   XYZ
    dof rx rz
    limits (-45.0 45.0)
           (-45.0 45.0)
  end
:hierarchy
  begin
    root lhipjoint rhipjoint lowerback
    lhipjoint lfemur
    lfemur ltibia
    ltibia lfoot
    lfoot ltoes
    rhipjoint rfemur
    rfemur rtibia
    rtibia rfoot
    rfoot rtoes
    lowerback upperback
    upperback thorax
    thorax lowerneck lclavicle rclavicle
    lowerneck upperneck
    upperneck head
    lclavicle lhumerus
    lhumerus lradius
    lradius lwrist
    lwrist lhand lthumb
    lhand lfingers
    rclavicle rhumerus
    rhumerus rradius
    rradius rwrist
    rwrist rhand rthumb
    rhand rfingers
  end

#!OML:ASF E:\I on waltz\AllaLogoMonkeySwing\Project 1\Capture day 1\Session 1\Subject1.ASF
:FULLY-SPECIFIED
:DEGREES
175
root 0.705247 17.9502 -3.54119 8.41413 -7.70193 0.0303112
lowerback 9.38277 -0.698016 -3.1841
upperback 0.870704 -1.18065 1.74675
thorax -4.25518 -0.514925 3.76826
lowerneck -12.0426 3.54088 1.19268
upperneck 10.1474 4.83493 -2.18856
head 5.10458 2.26194 -0.493398
rclavicle 5.06901e-015 -1.0138e-014
rhumerus -39.4599 -25.7864 -67.2916
rradius 31.399
rwrist -1.06601
rhand -2.80913 -36.6576
rfingers 7.12502
rthumb 22.8971 -65.3182
lclavicle 5.06901e-015 -1.0138e-014
lhumerus -43.4761 12.8286 81.4054
lradius 44.4146
lwrist 2.76968
lhand -9.10256 -6.63288
lfingers 7.12502
lthumb 16.8477 22.6563
rfemur -10.9313 1.96619 16.8774
rtibia 18.6843
rfoot -13.7414 -6.79594
rtoes 9.23613
lfemur -5.69894 5.54521 -19.3437
ltibia 13.4496
lfoot -13.9472 6.52476
ltoes -28.0889
176
root 0.711764 17.9465 -3.58033 8.83544 -7.85951 0.0195291
lowerback 9.96812 -0.699888 -3.254
upperback 0.939637 -1.20762 1.71651
thorax -4.50692 -0.522463 3.79342
lowerneck -11.8554 3.68123 1.40301
upperneck 9.42685 5.02043 -2.58498
head 4.86883 2.34289 -0.645143
rclavicle -1.02374e-014 -2.10712e-014
rhumerus -39.3599 -24.5991 -68.2573
rradius 32.539
rwrist -1.88094
rhand -2.85139 -36.9914
rfingers 7.12502
rthumb 22.8566 -65.657
lclavicle -1.02374e-014 -2.10712e-014
lhumerus -44.338 10.9971 82.257
lradius 46.2958
lwrist 4.18707
lhand -9.6588 -6.67685
lfingers 7.12502
lthumb 16.3122 22.6571
rfemur -11.9224 1.87249 16.8738
rtibia 19.3656
rfoot -13.8011 -6.6934
rtoes 9.1537
lfemur -6.81572 5.68022 -19.4219
ltibia 14.4534
lfoot -14.2202 6.60706
ltoes -27.6737
177
root 0.719159 17.9396 -3.62478 9.36157 -8.0351 -0.0651494
lowerback 10.5893 -0.673898 -3.22014
upperback 0.98749 -1.18788 1.68038
thorax -4.80674 -0.507365 3.7488
lowerneck -11.7477 3.7929 1.59008
upperneck 8.71393 5.16452 -2.95805
head 4.64845 2.40467 -0.787595
rclavicle 4.42296e-015 -2.5842e-015
rhumerus -39.3619 -23.4171 -69.2519
rradius 33.858
rwrist -2.65735
rhand -3.01434 -36.979
rfingers 7.12502
rthumb 22.7002 -65.6638
lclavicle 4.42296e-015 -2.5842e-015
lhumerus -45.2106 9.04608 83.1583
lradius 48.227
lwrist 5.45516
lhand -10.1227 -6.72386
lfingers 7.12502
lthumb 15.8655 22.6461
rfemur -13.1676 1.80414 16.9584
rtibia 20.283
rfoot -14.0502 -6.53154
rtoes 8.99001
lfemur -8.18423 6.01525 -19.4122
ltibia 15.7118
lfoot -14.6214 6.58134
ltoes -26.9743
178
root 0.728219 17.9298 -3.67786 10.0181 -8.23718 0.0209311
lowerback 11.1837 -0.655209 -3.41179
upperback 1.00829 -1.20653 1.61465
thorax -5.11251 -0.506116 3.8063
lowerneck -11.8708 3.93765 1.55897
upperneck 8.24468 5.35099 -2.9746
head 4.5275 2.49802 -0.775823
rclavicle 2.32081e-014 -2.82274e-014
rhumerus -39.359 -22.2043 -70.2695
rradius 35.24
rwrist -3.36211
rhand -3.27858 -36.5303
rfingers 7.12502
rthumb 22.4466 -65.2459
lclavicle 2.32081e-014 -2.82274e-014
lhumerus -46.1376 7.2333 84.0551
lradius 50.2926
lwrist 6.58616
lhand -10.4152 -6.80684
lfingers 7.12502
lthumb 15.5837 22.5853
rfemur -14.7557 1.63194 16.8246
rtibia 21.4533
rfoot -14.399 -6.33708
rtoes 9.00637
lfemur -9.88933 6.45545 -19.6369
ltibia 17.2187
lfoot -15.1646 6.43426
ltoes -26.2553
179
root 0.73656 17.9096 -3.73937 10.6054 -8.35404 -0.38479
lowerback 11.9513 -0.662314 -3.19513
upperback 1.16354 -1.20421 1.7061
thorax -5.37941 -0.504848 3.79723
lowerneck -12.0772 4.09368 1.52025
upperneck 7.62687 5.54796 -2.98661
head 4.37424 2.59772 -0.760956
rclavicle -1.98785e-015 -1.71949e-014
rhumerus -39.1747 -20.9189 -71.3893
rradius 36.7259
rwrist -3.91439
rhand -3.4993 -36.4492
rfingers 7.12502
rthumb 22.2347 -65.1903
lclavicle -1.98785e-015 -1.71949e-014
lhumerus -46.9766 5.64452 84.8814
lradius 52.4671
lwrist 7.30349
lhand -10.2523 -6.79757
lfingers 7.12502
lthumb 15.7407 22.5823
rfemur -16.2885 1.40612 17.3045
rtibia 22.7738
rfoot -14.725 -6.1214
rtoes 9.59474
lfemur -11.5901 7.02219 -19.237
ltibia 18.9587
lfoot -15.7967 6.19281
ltoes -25.9495
180
root 0.744288 17.8809 -3.80787 11.2175 -8.49677 -0.761823
lowerback 12.7347 -0.64181 -3.02393
upperback 1.39977 -1.17032 1.75711
thorax -5.57088 -0.490716 3.76512
lowerneck -12.2709 4.25841 1.61442
upperneck 6.73722 5.74188 -3.15141
head 4.14374 2.69433 -0.817867
rclavicle -4.37326e-015 -1.799e-014
rhumerus -38.8552 -19.5857 -72.6515
rradius 38.3528
rwrist -4.26182
rhand -3.64406 -36.7519
rfingers 7.12502
rthumb 22.0957 -65.5094
lclavicle -4.37326e-015 -1.799e-014
lhumerus -47.6419 4.19302 85.5482
lradius 54.5812
lwrist 7.65208
lhand -9.70165 -6.79351
lfingers 7.12502
lthumb 16.2709 22.5438
rfemur -18.0377 1.20989 17.7436
rtibia 24.3776
rfoot -15.1579 -5.8626
rtoes 10.7195
lfemur -13.4974 7.72368 -18.8776
ltibia 20.9565
lfoot -16.4825 5.88466
ltoes -25.3985
181
root 0.750873 17.8397 -3.88647 11.8029 -8.64323 -0.94457
lowerback 13.7059 -0.593551 -3.07928
upperback 1.61737 -1.13859 1.75086
thorax -5.8807 -0.470059 3.80672
lowerneck -12.4315 4.43673 1.65925
upperneck 5.45913 5.93982 -3.14996
head 4.21173 2.81079 -0.907339
rclavicle 2.52332e-014 -2.5345e-014
rhumerus -38.6081 -18.1972 -73.9082
rradius 40.1594
rwrist -4.85442
rhand -3.77174 -36.8934
rfingers 7.12502
rthumb 21.9731 -65.6654
lclavicle 2.52332e-014 -2.5345e-014
lhumerus -48.3249 2.7553 86.2093
lradius 56.7207
lwrist 8.20766
lhand -9.36333 -6.80574
lfingers 7.12502
lthumb 16.5967 22.5046
rfemur -20.0049 0.905414 17.9544
rtibia 26.3222
rfoot -15.9116 -5.52616
rtoes 11.4343
lfemur -15.5819 8.39533 -18.767
ltibia 23.1853
lfoot -17.222 5.55931
ltoes -24.3316
182
root 0.759207 17.7834 -3.97262 12.3848 -8.7737 -1.00344
lowerback 14.8236 -0.527957 -3.32251
upperback 1.82283 -1.11915 1.74711
thorax -6.27695 -0.448379 3.96447
lowerneck -12.6211 4.6248 1.68401
upperneck 4.48583 6.16807 -3.28683
head 3.9124 2.92568 -0.94347
rclavicle -1.83721e-014 -1.29459e-014
rhumerus -38.4665 -16.847 -75.0365
rradius 42.1488
rwrist -5.67537
rhand -4.00477 -36.8515
rfingers 7.12502
rthumb 21.7494 -65.6496
lclavicle -1.83721e-014 -1.29459e-014
lhumerus -48.9804 1.40536 86.9058
lradius 58.8609
lwrist 8.93119
lhand -9.36126 -6.741
lfingers 7.12502
lthumb 16.5987 22.5692
rfemur -22.2266 0.428502 18.0488
rtibia 28.7041
rfoot -16.8907 -5.13779
rtoes 11.7218
lfemur -17.8385 9.00984 -18.8477
ltibia 25.6517
lfoot -18.1059 5.23843
ltoes -23.1633
183
root 0.769987 17.7079 -4.0611 12.9996 -8.91661 -1.16119
lowerback 16.0056 -0.410551 -3.42068
upperback 2.02793 -1.01495 1.73413
thorax -6.71674 -0.387532 4.01378
lowerneck -12.8448 4.7538 1.79885
upperneck 3.49687 6.30942 -3.54574
head 3.62444 2.99393 -1.04268
rclavicle -2.88486e-014 -1.03368e-014
rhumerus -38.4085 -15.7593 -75.997
rradius 44.1748
rwrist -6.39755
rhand -4.33012 -36.6404
rfingers 7.12502
rthumb 21.4369 -65.4744
lclavicle -2.88486e-014 -1.03368e-014
lhumerus -49.5355 0.00671063 87.5496
lradius 60.8579
lwrist 9.61901
lhand -9.49451 -6.76081
lfingers 7.12502
lthumb 16.4704 22.5601
rfemur -24.6812 -0.100013 18.3011
rtibia 31.4697
rfoot -17.8498 -4.71507
rtoes 12.2363
lfemur -20.2403 9.7104 -18.8585
ltibia 28.3332
lfoot -19.1638 4.92388
ltoes -21.9993
184
root 0.777224 17.6113 -4.15265 13.7042 -9.02077 -1.36613
lowerback 17.1612 -0.272961 -3.45842
upperback 2.2047 -0.876291 1.70958
thorax -7.17355 -0.310842 4.0055
lowerneck -13.0377 4.81833 1.80775
upperneck 2.49803 6.37 -3.67948
head 3.31772 3.02731 -1.08819
rclavicle 3.28989e-014 3.57812e-015
rhumerus -38.3598 -14.7933 -76.8521
rradius 46.1444
rwrist -7.04725
rhand -4.55067 -36.496
rfingers 7.12502
rthumb 21.2251 -65.354
lclavicle 3.28989e-014 3.57812e-015
lhumerus -50.0067 -1.33458 88.0666
lradius 62.7697
lwrist 10.2046
lhand -9.45779 -6.71822
lfingers 7.12502
lthumb 16.5057 22.5997
rfemur -27.3659 -0.751069 18.6826
rtibia 34.4431
rfoot -18.8309 -4.30688
rtoes 12.5881
lfemur -22.865 10.4003 -18.8382
ltibia 31.1885
lfoot -20.249 4.61901
ltoes -21.0623
185
root 0.781518 17.4923 -4.25134 14.526 -9.01949 -1.54914
lowerback 18.2567 -0.186677 -3.5503
upperback 2.3737 -0.814886 1.69185
thorax -7.59416 -0.270777 4.04914
lowerneck -13.2728 4.9226 1.75968
upperneck 1.47323 6.48394 -3.70996
head 3.00717 3.09137 -1.0853
rclavicle -1.58034e-014 4.07509e-015
rhumerus -38.2458 -13.8138 -77.7276
rradius 48.1236
rwrist -7.54788
rhand -4.80285 -36.525
rfingers 7.12502
rthumb 20.9828 -65.41
lclavicle -1.58034e-014 4.07509e-015
lhumerus -50.3784 -2.32892 88.3721
lradius 64.7084
lwrist 10.4999
lhand -9.35945 -6.76733
lfingers 7.12502
lthumb 16.6004 22.5427
rfemur -30.254 -1.45556 19.1049
rtibia 37.4783
rfoot -19.8364 -4.06296
rtoes 12.9178
lfemur -25.8265 10.9597 -18.8828
ltibia 34.3115
lfoot -21.2894 4.35153
ltoes -20.496
186
root 0.785096 17.3499 -4.35758 15.4191 -8.96636 -1.77468
lowerback 19.3332 -0.114051 -3.60039
upperback 2.5779 -0.764828 1.67041
thorax -7.96193 -0.239428 4.06518
lowerneck -13.4704 5.01389 1.75553
upperneck 0.258301 6.57178 -3.80867
head 2.6311 3.14324 -1.1177
rclavicle 3.04141e-014 -8.94531e-015
rhumerus -38.0745 -12.9943 -78.6072
rradius 50.1537
rwrist -7.73455
rhand -5.25983 -36.4822
rfingers 7.12502
rthumb 20.5437 -65.4152
lclavicle 3.04141e-014 -8.94531e-015
lhumerus -50.5338 -3.09314 88.4767
lradius 66.5888
lwrist 10.5044
lhand -9.54787 -7.03946
lfingers 7.12502
lthumb 16.419 22.2857
rfemur -33.2789 -2.05125 19.6118
rtibia 40.5528
rfoot -20.7723 -3.93566
rtoes 13.3897
lfemur -29.0743 11.5093 -18.9273
ltibia 37.7171
lfoot -22.2699 4.17751
ltoes -19.9937
